<svg width="698" height="121" viewBox="0 0 698 121" fill="none" xmlns="http://www.w3.org/2000/svg">
<path d="M35.5 4.0625H53.25L88.625 96H70.4375L63.25 77.0625H25.75L18.25 96H0.0625L35.5 4.0625ZM44.5 28.4375L32.25 60H56.6875L44.5 28.4375ZM100.375 28H117.375V34.9375C121.25 31.6875 124.75 29.4375 127.875 28.1875C131.042 26.8958 134.271 26.25 137.562 26.25C144.312 26.25 150.042 28.6042 154.75 33.3125C158.708 37.3125 160.688 43.2292 160.688 51.0625V96H143.812V66.1875C143.812 58.0625 143.438 52.6667 142.688 50C141.979 47.3333 140.708 45.3125 138.875 43.9375C137.083 42.5208 134.854 41.8125 132.188 41.8125C128.729 41.8125 125.75 42.9792 123.25 45.3125C120.792 47.6042 119.083 50.7917 118.125 54.875C117.625 57 117.375 61.6042 117.375 68.6875V96H100.375V28ZM177.375 1.75H194.438V56.0625L219.562 28H240.938L211.688 60.625L244.5 96H223.312L194.438 64.6875V96H177.375V1.75ZM258.188 0C261.188 0 263.75 1.08333 265.875 3.25C268.042 5.41667 269.125 8.04167 269.125 11.125C269.125 14.1667 268.062 16.7708 265.938 18.9375C263.812 21.0625 261.271 22.125 258.312 22.125C255.271 22.125 252.667 21.0417 250.5 18.875C248.375 16.6667 247.312 14 247.312 10.875C247.312 7.875 248.375 5.3125 250.5 3.1875C252.625 1.0625 255.188 0 258.188 0ZM249.625 28H266.75V96H249.625V28ZM350.375 66.9375H295.562C296.354 71.7708 298.458 75.625 301.875 78.5C305.333 81.3333 309.729 82.75 315.062 82.75C321.438 82.75 326.917 80.5208 331.5 76.0625L345.875 82.8125C342.292 87.8958 338 91.6667 333 94.125C328 96.5417 322.062 97.75 315.188 97.75C304.521 97.75 295.833 94.3958 289.125 87.6875C282.417 80.9375 279.062 72.5 279.062 62.375C279.062 52 282.396 43.3958 289.062 36.5625C295.771 29.6875 304.167 26.25 314.25 26.25C324.958 26.25 333.667 29.6875 340.375 36.5625C347.083 43.3958 350.438 52.4375 350.438 63.6875L350.375 66.9375ZM333.25 53.5C332.125 49.7083 329.896 46.625 326.562 44.25C323.271 41.875 319.438 40.6875 315.062 40.6875C310.312 40.6875 306.146 42.0208 302.562 44.6875C300.312 46.3542 298.229 49.2917 296.312 53.5H333.25ZM366.312 2.9375H383.312V28H393.438V42.6875H383.312V96H366.312V42.6875H357.562V28H366.312V2.9375ZM434.562 26.25C440.979 26.25 447 27.8542 452.625 31.0625C458.292 34.2708 462.708 38.625 465.875 44.125C469.042 49.625 470.625 55.5625 470.625 61.9375C470.625 68.3542 469.021 74.3542 465.812 79.9375C462.646 85.5208 458.312 89.8958 452.812 93.0625C447.312 96.1875 441.25 97.75 434.625 97.75C424.875 97.75 416.542 94.2917 409.625 87.375C402.75 80.4167 399.312 71.9792 399.312 62.0625C399.312 51.4375 403.208 42.5833 411 35.5C417.833 29.3333 425.688 26.25 434.562 26.25ZM434.812 42.3125C429.521 42.3125 425.104 44.1667 421.562 47.875C418.062 51.5417 416.312 56.25 416.312 62C416.312 67.9167 418.042 72.7083 421.5 76.375C425 80.0417 429.417 81.875 434.75 81.875C440.083 81.875 444.521 80.0208 448.062 76.3125C451.604 72.6042 453.375 67.8333 453.375 62C453.375 56.1667 451.625 51.4375 448.125 47.8125C444.667 44.1458 440.229 42.3125 434.812 42.3125Z" fill="#2B2D42"/>
<path d="M501.562 28V35.5C504.646 32.4167 507.979 30.1042 511.562 28.5625C515.146 27.0208 518.979 26.25 523.062 26.25C531.938 26.25 539.479 29.6042 545.688 36.3125C551.896 43.0208 555 51.625 555 62.125C555 72.25 551.792 80.7292 545.375 87.5625C538.958 94.3542 531.354 97.75 522.562 97.75C518.646 97.75 515 97.0625 511.625 95.6875C508.25 94.2708 504.896 91.9792 501.562 88.8125V120.875H484.625V28H501.562ZM519.5 42C514.125 42 509.667 43.8333 506.125 47.5C502.583 51.1667 500.812 55.9583 500.812 61.875C500.812 67.9167 502.583 72.8125 506.125 76.5625C509.667 80.2708 514.125 82.125 519.5 82.125C524.708 82.125 529.083 80.2292 532.625 76.4375C536.208 72.6458 538 67.8125 538 61.9375C538 56.1042 536.25 51.3333 532.75 47.625C529.25 43.875 524.833 42 519.5 42ZM601.062 26.25C607.479 26.25 613.5 27.8542 619.125 31.0625C624.792 34.2708 629.208 38.625 632.375 44.125C635.542 49.625 637.125 55.5625 637.125 61.9375C637.125 68.3542 635.521 74.3542 632.312 79.9375C629.146 85.5208 624.812 89.8958 619.312 93.0625C613.812 96.1875 607.75 97.75 601.125 97.75C591.375 97.75 583.042 94.2917 576.125 87.375C569.25 80.4167 565.812 71.9792 565.812 62.0625C565.812 51.4375 569.708 42.5833 577.5 35.5C584.333 29.3333 592.188 26.25 601.062 26.25ZM601.312 42.3125C596.021 42.3125 591.604 44.1667 588.062 47.875C584.562 51.5417 582.812 56.25 582.812 62C582.812 67.9167 584.542 72.7083 588 76.375C591.5 80.0417 595.917 81.875 601.25 81.875C606.583 81.875 611.021 80.0208 614.562 76.3125C618.104 72.6042 619.875 67.8333 619.875 62C619.875 56.1667 618.125 51.4375 614.625 47.8125C611.167 44.1458 606.729 42.3125 601.312 42.3125ZM649.312 1.75H666.375V96H649.312V1.75ZM680.062 1.75H697.125V96H680.062V1.75Z" fill="#D90429"/>
</svg>
